<svg width="41" height="40" viewBox="0 0 41 40" fill="none" xmlns="http://www.w3.org/2000/svg">
<g filter="url(#filter0_d_4840_2694)">
<path d="M20.5 37.4473C11.2529 37.4473 3.56641 29.7773 3.56641 20.5137C3.56641 11.2666 11.2363 3.58008 20.4834 3.58008C29.7471 3.58008 37.4336 11.2666 37.4336 20.5137C37.4336 29.7773 29.7637 37.4473 20.5 37.4473ZM20.5498 10.8848C18.4082 10.8848 16.2666 11.6318 14.7891 12.8438C13.959 13.5078 13.7764 14.4043 14.374 15.0352C14.9551 15.6826 15.752 15.5664 16.4326 15.0684C17.6611 14.1221 18.8896 13.5908 20.5498 13.5908C23.9531 13.5908 26.7754 15.8818 27.5391 18.9199H25.6299C24.833 18.9199 24.667 19.6836 25.0986 20.2979L27.8711 24.1494C28.3359 24.7803 29.1328 24.8301 29.6309 24.1494L32.3701 20.2979C32.8018 19.6836 32.6523 18.9199 31.8389 18.9199H30.1289C29.2822 14.1553 25.4307 10.8848 20.5498 10.8848ZM20.583 30.0762C22.7246 30.0762 24.8662 29.3291 26.3438 28.1006C27.1738 27.4531 27.373 26.5566 26.7588 25.9258C26.1611 25.2783 25.3809 25.3779 24.7002 25.8926C23.4717 26.8389 22.2432 27.3535 20.583 27.3535C17.1797 27.3535 14.3574 25.0625 13.5938 22.041H15.3867C16.2002 22.041 16.3662 21.2773 15.9346 20.6631L13.1455 16.7949C12.6973 16.1641 11.9004 16.1309 11.4023 16.7949L8.66309 20.6631C8.23145 21.2773 8.38086 22.041 9.19434 22.041H11.0039C11.834 26.8057 15.7021 30.0762 20.583 30.0762Z" fill="white"/>
</g>
<defs>
<filter id="filter0_d_4840_2694" x="3.56641" y="3.58008" width="35.8672" height="35.8672" filterUnits="userSpaceOnUse" color-interpolation-filters="sRGB">
<feFlood flood-opacity="0" result="BackgroundImageFix"/>
<feColorMatrix in="SourceAlpha" type="matrix" values="0 0 0 0 0 0 0 0 0 0 0 0 0 0 0 0 0 0 127 0" result="hardAlpha"/>
<feOffset dx="1" dy="1"/>
<feGaussianBlur stdDeviation="0.5"/>
<feComposite in2="hardAlpha" operator="out"/>
<feColorMatrix type="matrix" values="0 0 0 0 0 0 0 0 0 0 0 0 0 0 0 0 0 0 0.25 0"/>
<feBlend mode="normal" in2="BackgroundImageFix" result="effect1_dropShadow_4840_2694"/>
<feBlend mode="normal" in="SourceGraphic" in2="effect1_dropShadow_4840_2694" result="shape"/>
</filter>
</defs>
</svg>
