<svg width="24" height="25" viewBox="0 0 24 25" fill="none" xmlns="http://www.w3.org/2000/svg">
<path d="M11.7236 24.105C5.2998 24.105 0.0102539 18.8154 0.0102539 12.3916C0.0102539 5.979 5.2998 0.678223 11.7124 0.678223C18.1362 0.678223 23.437 5.979 23.437 12.3916C23.437 18.8154 18.1475 24.105 11.7236 24.105ZM8.09619 17.1758C8.44434 17.1758 8.7251 17.0635 8.94971 16.8389L11.7236 14.0537L14.5088 16.8389C14.7222 17.0635 15.0142 17.1758 15.3511 17.1758C16.0024 17.1758 16.5078 16.6704 16.5078 16.0078C16.5078 15.7046 16.3955 15.4126 16.1709 15.1992L13.3745 12.4141L16.1821 9.60645C16.418 9.37061 16.519 9.10107 16.519 8.78662C16.519 8.14648 16.0137 7.64111 15.3735 7.64111C15.0366 7.64111 14.7783 7.74219 14.5425 7.97803L11.7236 10.7744L8.92725 7.98926C8.70264 7.76465 8.44434 7.65234 8.09619 7.65234C7.45605 7.65234 6.95068 8.15771 6.95068 8.80908C6.95068 9.10107 7.07422 9.39307 7.2876 9.60645L10.084 12.4141L7.2876 15.2104C7.07422 15.4238 6.95068 15.7158 6.95068 16.0078C6.95068 16.6704 7.45605 17.1758 8.09619 17.1758Z" fill="white" fill-opacity="0.6"/>
</svg>
