<svg width="24" height="25" viewBox="0 0 24 25" fill="none" xmlns="http://www.w3.org/2000/svg">
<path d="M11.7236 24.105C5.2998 24.105 0.0102539 18.8154 0.0102539 12.3916C0.0102539 5.979 5.2998 0.678223 11.7124 0.678223C18.1362 0.678223 23.437 5.979 23.437 12.3916C23.437 18.8154 18.1475 24.105 11.7236 24.105ZM10.4771 17.9731C10.9263 17.9731 11.3193 17.7485 11.5889 17.3442L16.8335 9.24707C17.002 8.98877 17.1367 8.68555 17.1367 8.41602C17.1367 7.78711 16.5752 7.34912 15.9688 7.34912C15.5757 7.34912 15.2388 7.57373 14.9692 7.98926L10.4434 15.2217L8.36572 12.6162C8.07373 12.2568 7.78174 12.1108 7.41113 12.1108C6.78223 12.1108 6.28809 12.6162 6.28809 13.2451C6.28809 13.5483 6.38916 13.8179 6.61377 14.0986L9.32031 17.3555C9.65723 17.771 10.0166 17.9731 10.4771 17.9731Z" fill="white" fill-opacity="0.6"/>
</svg>
