<svg width="25" height="24" viewBox="0 0 25 24" fill="none" xmlns="http://www.w3.org/2000/svg">
<rect x="0.5" width="24" height="24" rx="12" fill="#28B18F"/>
<path d="M7.47266 11.7695C7.47266 11.2832 7.87109 10.8848 8.36328 10.8848H11.6152V7.63281C11.6152 7.14648 12.0078 6.74219 12.5 6.74219C12.9922 6.74219 13.3906 7.14648 13.3906 7.63281V10.8848H16.6426C17.1289 10.8848 17.5273 11.2832 17.5273 11.7695C17.5273 12.2617 17.1289 12.6602 16.6426 12.6602H13.3906V15.9121C13.3906 16.3984 12.9922 16.8027 12.5 16.8027C12.0078 16.8027 11.6152 16.3984 11.6152 15.9121V12.6602H8.36328C7.87109 12.6602 7.47266 12.2617 7.47266 11.7695Z" fill="white"/>
</svg>
